<?xml version="1.0" encoding="UTF-8" standalone="no"?> <!-- Created with Vectornator for iOS (http://vectornator.io/) --><!DOCTYPE svg PUBLIC "-//W3C//DTD SVG 1.1//EN" "http://www.w3.org/Graphics/SVG/1.1/DTD/svg11.dtd">
<svg style="fill-rule:evenodd;clip-rule:evenodd;stroke-linecap:round;stroke-linejoin:round;" xmlns:vectornator="http://vectornator.io" xmlns:xlink="http://www.w3.org/1999/xlink" xmlns="http://www.w3.org/2000/svg" xml:space="preserve" version="1.1" viewBox="0 0 550 375">
<metadata>
<vectornator:setting key="SnapToGrid" value="0"/>
<vectornator:setting key="SnapToPoints" value="0"/>
<vectornator:setting key="OutlineMode" value="0"/>
<vectornator:setting key="RulersVisible" value="1"/>
<vectornator:setting key="SnapToEdges" value="0"/>
<vectornator:setting key="DisplayWhiteBackground" value="0"/>
<vectornator:setting key="ShowGrid" value="1"/>
<vectornator:setting key="SnapToGuides" value="1"/>
<vectornator:setting key="GridSpacing" value="36"/>
<vectornator:setting key="IsolateActiveLayer" value="0"/>
<vectornator:setting key="Units" value="Pixels"/>
<vectornator:setting key="DynamicGuides" value="0"/>
</metadata>
<defs/>
<g id="Layer 1" vectornator:layerName="Layer 1">
<path d="M0+0L550+0L550+375L0+375L0+0Z" opacity="1" fill="#000000"/>
<g opacity="1">
<path d="M172.021+83.1544C174.31+82.8782+175.977+82.3812+177.02+81.6632C178.845+80.3928+179.758+78.1974+179.758+75.0768C179.758+72.7018+178.903+70.824+177.194+69.4432C176.179+68.6423+174.455+67.8139+172.021+66.9578L172.021+83.1544ZM167.892+39.8667C165.371+39.9219+163.502+40.564+162.285+41.7929C161.068+43.0218+160.459+44.6995+160.459+46.8259C160.459+49.1456+161.372+50.9821+163.197+52.3352C164.212+53.0808+165.777+53.7712+167.892+54.4064L167.892+39.8667ZM172.108+100.718L167.892+100.718L167.892+92.4747C162.183+91.8672+157.924+90.6797+155.113+88.9123C150.158+85.7365+147.723+80.3238+147.81+72.6742L159.546+72.6742C159.952+76.1538+160.517+78.4873+161.242+79.6748C162.372+81.5251+164.588+82.7264+167.892+83.2787L167.892+65.5908L164.371+64.5966C158.836+63.0501+154.932+60.8961+152.657+58.1345C150.382+55.373+149.245+52.0453+149.245+48.1514C149.245+45.5832+149.687+43.2496+150.57+41.1508C151.454+39.052+152.693+37.2432+154.287+35.7243C156.344+33.7636+158.634+32.4105+161.155+31.6648C162.69+31.1954+164.936+30.8502+167.892+30.6292L167.892+25.1199L172.021+25.1199L172.021+30.7121C176.745+31.0711+180.454+32.1757+183.149+34.026C188.046+36.9809+190.581+41.7722+190.755+48.4L179.324+48.4C179.092+45.9422+178.657+44.1472+178.02+43.0149C176.918+41.0542+174.919+39.9772+172.021+39.7839L172.021+55.5663C178.918+57.8308+183.554+59.8329+185.93+61.5727C189.842+64.4723+191.798+68.5595+191.798+73.8341C191.798+80.7933+189.118+85.8469+183.757+88.9951C180.483+90.9282+176.6+92.0605+172.108+92.3919L172.108+100.718Z" opacity="1" fill="#ff7500"/>
</g>
<path d="M485+25.86C462.948+25.86+445+43.8081+445+65.86C445+87.9119+462.948+105.86+485+105.86C507.052+105.86+525+87.9119+525+65.86C525+43.8081+507.052+25.86+485+25.86ZM473.893+34.4538L485+42.5267L496.107+34.4538C502.25+36.6186+507.552+40.5158+511.439+45.5801L507.194+58.653L518.288+66.7129C518.119+73.4002+516.02+79.5911+512.487+84.7337L498.711+84.7337L494.466+97.8131C491.465+98.6969+488.293+99.1933+485+99.1933C481.707+99.1933+478.535+98.6969+475.534+97.8131L471.283+84.7402L457.52+84.7402C453.984+79.5961+451.881+73.4035+451.712+66.7129L462.812+58.6465L458.561+45.5801C462.448+40.5158+467.75+36.6186+473.893+34.4538ZM485+49.1933L469.225+60.6517L475.254+79.1933L494.746+79.1933L500.775+60.6517L485+49.1933Z" opacity="1" fill="#ffffff"/>
<path d="M65+25.86C42.9481+25.86+25+43.8081+25+65.86C25+87.9119+42.9481+105.86+65+105.86C87.0519+105.86+105+87.9119+105+65.86C105+43.8081+87.0519+25.86+65+25.86ZM53.8932+34.4538L65+42.5267L76.1068+34.4538C82.2502+36.6186+87.5523+40.5158+91.4388+45.5801L87.194+58.653L98.2878+66.7129C98.1191+73.4002+96.0196+79.5911+92.487+84.7337L78.7109+84.7337L74.4661+97.8131C71.465+98.6969+68.2926+99.1933+65+99.1933C61.7074+99.1933+58.535+98.6969+55.5339+97.8131L51.2826+84.7402L37.5195+84.7402C33.9839+79.5961+31.881+73.4035+31.7122+66.7129L42.8125+58.6465L38.5612+45.5801C42.4477+40.5158+47.7498+36.6186+53.8932+34.4538ZM65+49.1933L49.2253+60.6517L55.2539+79.1933L74.7461+79.1933L80.7747+60.6517L65+49.1933Z" opacity="1" fill="#ffffff"/>
<path d="M275+25.86C252.948+25.86+235+43.8081+235+65.86C235+87.9119+252.948+105.86+275+105.86C297.052+105.86+315+87.9119+315+65.86C315+43.8081+297.052+25.86+275+25.86ZM263.893+34.4538L275+42.5267L286.107+34.4538C292.25+36.6186+297.552+40.5158+301.439+45.5801L297.194+58.653L308.288+66.7129C308.119+73.4002+306.02+79.5911+302.487+84.7337L288.711+84.7337L284.466+97.8131C281.465+98.6969+278.293+99.1933+275+99.1933C271.707+99.1933+268.535+98.6969+265.534+97.8131L261.283+84.7402L247.52+84.7402C243.984+79.5961+241.881+73.4035+241.712+66.7129L252.812+58.6465L248.561+45.5801C252.448+40.5158+257.75+36.6186+263.893+34.4538ZM275+49.1933L259.225+60.6517L265.254+79.1933L284.746+79.1933L290.775+60.6517L275+49.1933Z" opacity="1" fill="#ffffff"/>
<g opacity="1">
<path d="M382.021+83.1544C384.31+82.8782+385.977+82.3812+387.02+81.6632C388.845+80.3928+389.758+78.1974+389.758+75.0768C389.758+72.7018+388.903+70.824+387.194+69.4432C386.179+68.6423+384.455+67.8139+382.021+66.9578L382.021+83.1544ZM377.892+39.8667C375.371+39.9219+373.502+40.564+372.285+41.7929C371.068+43.0218+370.459+44.6995+370.459+46.8259C370.459+49.1456+371.372+50.982+373.197+52.3352C374.212+53.0808+375.777+53.7712+377.892+54.4064L377.892+39.8667ZM382.108+100.718L377.892+100.718L377.892+92.4747C372.183+91.8672+367.924+90.6797+365.113+88.9123C360.158+85.7365+357.723+80.3238+357.81+72.6742L369.546+72.6742C369.952+76.1538+370.517+78.4873+371.242+79.6748C372.372+81.5251+374.588+82.7264+377.892+83.2787L377.892+65.5908L374.371+64.5966C368.836+63.0501+364.932+60.8961+362.657+58.1345C360.382+55.373+359.245+52.0453+359.245+48.1514C359.245+45.5832+359.687+43.2496+360.57+41.1508C361.454+39.052+362.693+37.2432+364.287+35.7243C366.344+33.7636+368.634+32.4105+371.155+31.6648C372.69+31.1954+374.936+30.8502+377.892+30.6292L377.892+25.1199L382.021+25.1199L382.021+30.7121C386.745+31.0711+390.454+32.1757+393.149+34.026C398.046+36.9809+400.581+41.7722+400.755+48.4L389.324+48.4C389.092+45.9422+388.657+44.1472+388.02+43.0149C386.918+41.0542+384.919+39.9772+382.021+39.7839L382.021+55.5663C388.918+57.8308+393.554+59.8329+395.93+61.5727C399.842+64.4723+401.798+68.5595+401.798+73.8341C401.798+80.7933+399.118+85.8469+393.757+88.9951C390.483+90.9282+386.6+92.0605+382.108+92.3919L382.108+100.718Z" opacity="1" fill="#ff7500"/>
</g>
<g opacity="1">
<path d="M277.021+203.154C279.31+202.878+280.977+202.381+282.02+201.663C283.845+200.393+284.758+198.197+284.758+195.077C284.758+192.702+283.903+190.824+282.194+189.443C281.179+188.642+279.455+187.814+277.021+186.958L277.021+203.154ZM272.892+159.867C270.371+159.922+268.502+160.564+267.285+161.793C266.068+163.022+265.459+164.699+265.459+166.826C265.459+169.146+266.372+170.982+268.197+172.335C269.212+173.081+270.777+173.771+272.892+174.406L272.892+159.867ZM277.108+220.718L272.892+220.718L272.892+212.475C267.183+211.867+262.924+210.68+260.113+208.912C255.158+205.736+252.723+200.324+252.81+192.674L264.546+192.674C264.952+196.154+265.517+198.487+266.242+199.675C267.372+201.525+269.588+202.726+272.892+203.279L272.892+185.591L269.371+184.597C263.836+183.05+259.932+180.896+257.657+178.135C255.382+175.373+254.245+172.045+254.245+168.151C254.245+165.583+254.687+163.25+255.57+161.151C256.454+159.052+257.693+157.243+259.287+155.724C261.344+153.764+263.634+152.41+266.155+151.665C267.69+151.195+269.936+150.85+272.892+150.629L272.892+145.12L277.021+145.12L277.021+150.712C281.745+151.071+285.454+152.176+288.149+154.026C293.046+156.981+295.581+161.772+295.755+168.4L284.324+168.4C284.092+165.942+283.657+164.147+283.02+163.015C281.918+161.054+279.919+159.977+277.021+159.784L277.021+175.566C283.918+177.831+288.554+179.833+290.93+181.573C294.842+184.472+296.798+188.559+296.798+193.834C296.798+200.793+294.118+205.847+288.757+208.995C285.483+210.928+281.6+212.06+277.108+212.392L277.108+220.718Z" opacity="1" fill="#ff7500"/>
</g>
<path d="M170+145.86C147.948+145.86+130+163.808+130+185.86C130+207.912+147.948+225.86+170+225.86C192.052+225.86+210+207.912+210+185.86C210+163.808+192.052+145.86+170+145.86ZM158.893+154.454L170+162.527L181.107+154.454C187.25+156.619+192.552+160.516+196.439+165.58L192.194+178.653L203.288+186.713C203.119+193.4+201.02+199.591+197.487+204.734L183.711+204.734L179.466+217.813C176.465+218.697+173.293+219.193+170+219.193C166.707+219.193+163.535+218.697+160.534+217.813L156.283+204.74L142.52+204.74C138.984+199.596+136.881+193.404+136.712+186.713L147.812+178.646L143.561+165.58C147.448+160.516+152.75+156.619+158.893+154.454ZM170+169.193L154.225+180.652L160.254+199.193L179.746+199.193L185.775+180.652L170+169.193Z" opacity="1" fill="#ffffff"/>
<path d="M380+145.86C357.948+145.86+340+163.808+340+185.86C340+207.912+357.948+225.86+380+225.86C402.052+225.86+420+207.912+420+185.86C420+163.808+402.052+145.86+380+145.86ZM368.893+154.454L380+162.527L391.107+154.454C397.25+156.619+402.552+160.516+406.439+165.58L402.194+178.653L413.288+186.713C413.119+193.4+411.02+199.591+407.487+204.734L393.711+204.734L389.466+217.813C386.465+218.697+383.293+219.193+380+219.193C376.707+219.193+373.535+218.697+370.534+217.813L366.283+204.74L352.52+204.74C348.984+199.596+346.881+193.404+346.712+186.713L357.812+178.646L353.561+165.58C357.448+160.516+362.75+156.619+368.893+154.454ZM380+169.193L364.225+180.652L370.254+199.193L389.746+199.193L395.775+180.652L380+169.193Z" opacity="1" fill="#ffffff"/>
<g opacity="1">
<path d="M487.021+203.154C489.31+202.878+490.977+202.381+492.02+201.663C493.845+200.393+494.758+198.197+494.758+195.077C494.758+192.702+493.903+190.824+492.194+189.443C491.179+188.642+489.455+187.814+487.021+186.958L487.021+203.154ZM482.892+159.867C480.371+159.922+478.502+160.564+477.285+161.793C476.068+163.022+475.459+164.699+475.459+166.826C475.459+169.146+476.372+170.982+478.197+172.335C479.212+173.081+480.777+173.771+482.892+174.406L482.892+159.867ZM487.108+220.718L482.892+220.718L482.892+212.475C477.183+211.867+472.924+210.68+470.113+208.912C465.158+205.736+462.723+200.324+462.81+192.674L474.546+192.674C474.952+196.154+475.517+198.487+476.242+199.675C477.372+201.525+479.588+202.726+482.892+203.279L482.892+185.591L479.371+184.597C473.836+183.05+469.932+180.896+467.657+178.135C465.382+175.373+464.245+172.045+464.245+168.151C464.245+165.583+464.687+163.25+465.57+161.151C466.454+159.052+467.693+157.243+469.287+155.724C471.344+153.764+473.634+152.41+476.155+151.665C477.69+151.195+479.936+150.85+482.892+150.629L482.892+145.12L487.021+145.12L487.021+150.712C491.745+151.071+495.454+152.176+498.149+154.026C503.046+156.981+505.581+161.772+505.755+168.4L494.324+168.4C494.092+165.942+493.657+164.147+493.02+163.015C491.918+161.054+489.919+159.977+487.021+159.784L487.021+175.566C493.918+177.831+498.554+179.833+500.93+181.573C504.842+184.472+506.798+188.559+506.798+193.834C506.798+200.793+504.118+205.847+498.757+208.995C495.483+210.928+491.6+212.06+487.108+212.392L487.108+220.718Z" opacity="1" fill="#ff7500"/>
</g>
<g opacity="1">
<path d="M67.0212+203.154C69.3104+202.878+70.9766+202.381+72.0198+201.663C73.8454+200.393+74.7582+198.197+74.7582+195.077C74.7582+192.702+73.9034+190.824+72.1937+189.443C71.1795+188.642+69.4553+187.814+67.0212+186.958L67.0212+203.154ZM62.8919+159.867C60.3708+159.922+58.5018+160.564+57.2847+161.793C56.0676+163.022+55.4591+164.699+55.4591+166.826C55.4591+169.146+56.3719+170.982+58.1975+172.335C59.2117+173.081+60.7765+173.771+62.8919+174.406L62.8919+159.867ZM67.1081+220.718L62.8919+220.718L62.8919+212.475C57.1833+211.867+52.9236+210.68+50.1127+208.912C45.1575+205.736+42.7234+200.324+42.8104+192.674L54.5463+192.674C54.952+196.154+55.5171+198.487+56.2415+199.675C57.3716+201.525+59.5884+202.726+62.8919+203.279L62.8919+185.591L59.3711+184.597C53.8364+183.05+49.9316+180.896+47.6569+178.135C45.3821+175.373+44.2448+172.045+44.2448+168.151C44.2448+165.583+44.6867+163.25+45.5705+161.151C46.4543+159.052+47.6931+157.243+49.2869+155.724C51.3443+153.764+53.6335+152.41+56.1546+151.665C57.6904+151.195+59.9362+150.85+62.8919+150.629L62.8919+145.12L67.0212+145.12L67.0212+150.712C71.7445+151.071+75.4537+152.176+78.1486+154.026C83.0458+156.981+85.5814+161.772+85.7552+168.4L74.3236+168.4C74.0917+165.942+73.6571+164.147+73.0196+163.015C71.9184+161.054+69.919+159.977+67.0212+159.784L67.0212+175.566C73.9179+177.831+78.5543+179.833+80.9305+181.573C84.8425+184.472+86.7984+188.559+86.7984+193.834C86.7984+200.793+84.118+205.847+78.7571+208.995C75.4827+210.928+71.5997+212.06+67.1081+212.392L67.1081+220.718Z" opacity="1" fill="#ff7500"/>
</g>
<g opacity="1">
<path d="M172.021+322.294C174.31+322.018+175.977+321.521+177.02+320.803C178.845+319.533+179.758+317.337+179.758+314.217C179.758+311.842+178.903+309.964+177.194+308.583C176.179+307.782+174.455+306.954+172.021+306.098L172.021+322.294ZM167.892+279.007C165.371+279.062+163.502+279.704+162.285+280.933C161.068+282.162+160.459+283.839+160.459+285.966C160.459+288.286+161.372+290.122+163.197+291.475C164.212+292.221+165.777+292.911+167.892+293.546L167.892+279.007ZM172.108+339.858L167.892+339.858L167.892+331.615C162.183+331.007+157.924+329.82+155.113+328.052C150.158+324.876+147.723+319.464+147.81+311.814L159.546+311.814C159.952+315.294+160.517+317.627+161.242+318.815C162.372+320.665+164.588+321.866+167.892+322.419L167.892+304.731L164.371+303.737C158.836+302.19+154.932+300.036+152.657+297.275C150.382+294.513+149.245+291.185+149.245+287.291C149.245+284.723+149.687+282.39+150.57+280.291C151.454+278.192+152.693+276.383+154.287+274.864C156.344+272.904+158.634+271.55+161.155+270.805C162.69+270.335+164.936+269.99+167.892+269.769L167.892+264.26L172.021+264.26L172.021+269.852C176.745+270.211+180.454+271.316+183.149+273.166C188.046+276.121+190.581+280.912+190.755+287.54L179.324+287.54C179.092+285.082+178.657+283.287+178.02+282.155C176.918+280.194+174.919+279.117+172.021+278.924L172.021+294.706C178.918+296.971+183.554+298.973+185.93+300.713C189.842+303.612+191.798+307.699+191.798+312.974C191.798+319.933+189.118+324.987+183.757+328.135C180.483+330.068+176.6+331.2+172.108+331.532L172.108+339.858Z" opacity="1" fill="#ff7500"/>
</g>
<path d="M485+265C462.948+265+445+282.948+445+305C445+327.052+462.948+345+485+345C507.052+345+525+327.052+525+305C525+282.948+507.052+265+485+265ZM473.893+273.594L485+281.667L496.107+273.594C502.25+275.759+507.552+279.656+511.439+284.72L507.194+297.793L518.288+305.853C518.119+312.54+516.02+318.731+512.487+323.874L498.711+323.874L494.466+336.953C491.465+337.837+488.293+338.333+485+338.333C481.707+338.333+478.535+337.837+475.534+336.953L471.283+323.88L457.52+323.88C453.984+318.736+451.881+312.544+451.712+305.853L462.812+297.786L458.561+284.72C462.448+279.656+467.75+275.759+473.893+273.594ZM485+288.333L469.225+299.792L475.254+318.333L494.746+318.333L500.775+299.792L485+288.333Z" opacity="1" fill="#ffffff"/>
<path d="M65+265C42.9481+265+25+282.948+25+305C25+327.052+42.9481+345+65+345C87.0519+345+105+327.052+105+305C105+282.948+87.0519+265+65+265ZM53.8932+273.594L65+281.667L76.1068+273.594C82.2502+275.759+87.5523+279.656+91.4388+284.72L87.194+297.793L98.2878+305.853C98.1191+312.54+96.0196+318.731+92.487+323.874L78.7109+323.874L74.4661+336.953C71.465+337.837+68.2926+338.333+65+338.333C61.7074+338.333+58.535+337.837+55.5339+336.953L51.2826+323.88L37.5195+323.88C33.9839+318.736+31.881+312.544+31.7122+305.853L42.8125+297.786L38.5612+284.72C42.4477+279.656+47.7498+275.759+53.8932+273.594ZM65+288.333L49.2253+299.792L55.2539+318.333L74.7461+318.333L80.7747+299.792L65+288.333Z" opacity="1" fill="#ffffff"/>
<path d="M275+265C252.948+265+235+282.948+235+305C235+327.052+252.948+345+275+345C297.052+345+315+327.052+315+305C315+282.948+297.052+265+275+265ZM263.893+273.594L275+281.667L286.107+273.594C292.25+275.759+297.552+279.656+301.439+284.72L297.194+297.793L308.288+305.853C308.119+312.54+306.02+318.731+302.487+323.874L288.711+323.874L284.466+336.953C281.465+337.837+278.293+338.333+275+338.333C271.707+338.333+268.535+337.837+265.534+336.953L261.283+323.88L247.52+323.88C243.984+318.736+241.881+312.544+241.712+305.853L252.812+297.786L248.561+284.72C252.448+279.656+257.75+275.759+263.893+273.594ZM275+288.333L259.225+299.792L265.254+318.333L284.746+318.333L290.775+299.792L275+288.333Z" opacity="1" fill="#ffffff"/>
<g opacity="1">
<path d="M382.021+322.294C384.31+322.018+385.977+321.521+387.02+320.803C388.845+319.533+389.758+317.337+389.758+314.217C389.758+311.842+388.903+309.964+387.194+308.583C386.179+307.782+384.455+306.954+382.021+306.098L382.021+322.294ZM377.892+279.007C375.371+279.062+373.502+279.704+372.285+280.933C371.068+282.162+370.459+283.839+370.459+285.966C370.459+288.286+371.372+290.122+373.197+291.475C374.212+292.221+375.777+292.911+377.892+293.546L377.892+279.007ZM382.108+339.858L377.892+339.858L377.892+331.615C372.183+331.007+367.924+329.82+365.113+328.052C360.158+324.876+357.723+319.464+357.81+311.814L369.546+311.814C369.952+315.294+370.517+317.627+371.242+318.815C372.372+320.665+374.588+321.866+377.892+322.419L377.892+304.731L374.371+303.737C368.836+302.19+364.932+300.036+362.657+297.275C360.382+294.513+359.245+291.185+359.245+287.291C359.245+284.723+359.687+282.39+360.57+280.291C361.454+278.192+362.693+276.383+364.287+274.864C366.344+272.904+368.634+271.55+371.155+270.805C372.69+270.335+374.936+269.99+377.892+269.769L377.892+264.26L382.021+264.26L382.021+269.852C386.745+270.211+390.454+271.316+393.149+273.166C398.046+276.121+400.581+280.912+400.755+287.54L389.324+287.54C389.092+285.082+388.657+283.287+388.02+282.155C386.918+280.194+384.919+279.117+382.021+278.924L382.021+294.706C388.918+296.971+393.554+298.973+395.93+300.713C399.842+303.612+401.798+307.699+401.798+312.974C401.798+319.933+399.118+324.987+393.757+328.135C390.483+330.068+386.6+331.2+382.108+331.532L382.108+339.858Z" opacity="1" fill="#ff7500"/>
</g>
</g>
</svg>
