<?xml version="1.0" encoding="UTF-8" standalone="no"?> <!-- Created with Vectornator for iOS (http://vectornator.io/) --><!DOCTYPE svg PUBLIC "-//W3C//DTD SVG 1.1//EN" "http://www.w3.org/Graphics/SVG/1.1/DTD/svg11.dtd">
<svg style="fill-rule:evenodd;clip-rule:evenodd;stroke-linecap:round;stroke-linejoin:round;" xmlns:vectornator="http://vectornator.io" xmlns:xlink="http://www.w3.org/1999/xlink" xmlns="http://www.w3.org/2000/svg" xml:space="preserve" version="1.1" viewBox="0 0 1500 375">
<metadata>
<vectornator:setting key="Units" value="Pixels"/>
<vectornator:setting key="SnapToPoints" value="0"/>
<vectornator:setting key="OutlineMode" value="0"/>
<vectornator:setting key="RulersVisible" value="1"/>
<vectornator:setting key="CMYKEnabledKey" value="0"/>
<vectornator:setting key="SnapToEdges" value="0"/>
<vectornator:setting key="DisplayWhiteBackground" value="0"/>
<vectornator:setting key="ShowGrid" value="1"/>
<vectornator:setting key="SnapToGuides" value="1"/>
<vectornator:setting key="GridSpacing" value="36"/>
<vectornator:setting key="IsolateActiveLayer" value="0"/>
<vectornator:setting key="DynamicGuides" value="0"/>
<vectornator:setting key="SnapToGrid" value="0"/>
</metadata>
<defs/>
<g id="Layer 1" vectornator:layerName="Layer 1">
<path d="M0+0L1500+0L1500+375L0+375L0+0Z" opacity="1" fill="#000000"/>
<g opacity="1">
<path d="M172.021+83.1544C174.31+82.8782+175.977+82.3812+177.02+81.6632C178.845+80.3928+179.758+78.1974+179.758+75.0768C179.758+72.7018+178.903+70.824+177.194+69.4432C176.179+68.6423+174.455+67.8139+172.021+66.9578L172.021+83.1544ZM167.892+39.8667C165.371+39.9219+163.502+40.564+162.285+41.7929C161.068+43.0218+160.459+44.6995+160.459+46.8259C160.459+49.1456+161.372+50.9821+163.197+52.3352C164.212+53.0808+165.777+53.7712+167.892+54.4064L167.892+39.8667ZM172.108+100.718L167.892+100.718L167.892+92.4747C162.183+91.8672+157.924+90.6797+155.113+88.9123C150.158+85.7365+147.723+80.3238+147.81+72.6742L159.546+72.6742C159.952+76.1538+160.517+78.4873+161.242+79.6748C162.372+81.5251+164.588+82.7264+167.892+83.2787L167.892+65.5908L164.371+64.5966C158.836+63.0501+154.932+60.8961+152.657+58.1345C150.382+55.373+149.245+52.0453+149.245+48.1514C149.245+45.5832+149.687+43.2496+150.57+41.1508C151.454+39.052+152.693+37.2432+154.287+35.7243C156.344+33.7636+158.634+32.4105+161.155+31.6648C162.69+31.1954+164.936+30.8502+167.892+30.6292L167.892+25.1199L172.021+25.1199L172.021+30.7121C176.745+31.0711+180.454+32.1757+183.149+34.026C188.046+36.9809+190.581+41.7722+190.755+48.4L179.324+48.4C179.092+45.9422+178.657+44.1472+178.02+43.0149C176.918+41.0542+174.919+39.9772+172.021+39.7839L172.021+55.5663C178.918+57.8308+183.554+59.8329+185.93+61.5727C189.842+64.4723+191.798+68.5595+191.798+73.8341C191.798+80.7933+189.118+85.8469+183.757+88.9951C180.483+90.9282+176.6+92.0605+172.108+92.3919L172.108+100.718Z" opacity="1" fill="#ff7500"/>
</g>
<path d="M485+25.86C462.948+25.86+445+43.8081+445+65.86C445+87.9119+462.948+105.86+485+105.86C507.052+105.86+525+87.9119+525+65.86C525+43.8081+507.052+25.86+485+25.86ZM473.893+34.4538L485+42.5267L496.107+34.4538C502.25+36.6186+507.552+40.5158+511.439+45.5801L507.194+58.653L518.288+66.7129C518.119+73.4002+516.02+79.5911+512.487+84.7337L498.711+84.7337L494.466+97.8131C491.465+98.6969+488.293+99.1933+485+99.1933C481.707+99.1933+478.535+98.6969+475.534+97.8131L471.283+84.7402L457.52+84.7402C453.984+79.5961+451.881+73.4035+451.712+66.7129L462.812+58.6465L458.561+45.5801C462.448+40.5158+467.75+36.6186+473.893+34.4538ZM485+49.1933L469.225+60.6517L475.254+79.1933L494.746+79.1933L500.775+60.6517L485+49.1933Z" opacity="1" fill="#ffffff"/>
<path d="M695+25.86C672.948+25.86+655+43.8081+655+65.86C655+87.9119+672.948+105.86+695+105.86C717.052+105.86+735+87.9119+735+65.86C735+43.8081+717.052+25.86+695+25.86ZM683.893+34.4538L695+42.5267L706.107+34.4538C712.25+36.6186+717.552+40.5158+721.439+45.5801L717.194+58.653L728.288+66.7129C728.119+73.4002+726.02+79.5911+722.487+84.7337L708.711+84.7337L704.466+97.8131C701.465+98.6969+698.293+99.1933+695+99.1933C691.707+99.1933+688.535+98.6969+685.534+97.8131L681.283+84.7402L667.52+84.7402C663.984+79.5961+661.881+73.4035+661.712+66.7129L672.812+58.6465L668.561+45.5801C672.448+40.5158+677.75+36.6186+683.893+34.4538ZM695+49.1933L679.225+60.6517L685.254+79.1933L704.746+79.1933L710.775+60.6517L695+49.1933Z" opacity="1" fill="#ffffff"/>
<path d="M65+25.86C42.9481+25.86+25+43.8081+25+65.86C25+87.9119+42.9481+105.86+65+105.86C87.0519+105.86+105+87.9119+105+65.86C105+43.8081+87.0519+25.86+65+25.86ZM53.8932+34.4538L65+42.5267L76.1068+34.4538C82.2502+36.6186+87.5523+40.5158+91.4388+45.5801L87.194+58.653L98.2878+66.7129C98.1191+73.4002+96.0196+79.5911+92.487+84.7337L78.7109+84.7337L74.4661+97.8131C71.465+98.6969+68.2926+99.1933+65+99.1933C61.7074+99.1933+58.535+98.6969+55.5339+97.8131L51.2826+84.7402L37.5195+84.7402C33.9839+79.5961+31.881+73.4035+31.7122+66.7129L42.8125+58.6465L38.5612+45.5801C42.4477+40.5158+47.7498+36.6186+53.8932+34.4538ZM65+49.1933L49.2253+60.6517L55.2539+79.1933L74.7461+79.1933L80.7747+60.6517L65+49.1933Z" opacity="1" fill="#ffffff"/>
<path d="M275+25.86C252.948+25.86+235+43.8081+235+65.86C235+87.9119+252.948+105.86+275+105.86C297.052+105.86+315+87.9119+315+65.86C315+43.8081+297.052+25.86+275+25.86ZM263.893+34.4538L275+42.5267L286.107+34.4538C292.25+36.6186+297.552+40.5158+301.439+45.5801L297.194+58.653L308.288+66.7129C308.119+73.4002+306.02+79.5911+302.487+84.7337L288.711+84.7337L284.466+97.8131C281.465+98.6969+278.293+99.1933+275+99.1933C271.707+99.1933+268.535+98.6969+265.534+97.8131L261.283+84.7402L247.52+84.7402C243.984+79.5961+241.881+73.4035+241.712+66.7129L252.812+58.6465L248.561+45.5801C252.448+40.5158+257.75+36.6186+263.893+34.4538ZM275+49.1933L259.225+60.6517L265.254+79.1933L284.746+79.1933L290.775+60.6517L275+49.1933Z" opacity="1" fill="#ffffff"/>
<g opacity="1">
<path d="M382.021+83.1544C384.31+82.8782+385.977+82.3812+387.02+81.6632C388.845+80.3928+389.758+78.1974+389.758+75.0768C389.758+72.7018+388.903+70.824+387.194+69.4432C386.179+68.6423+384.455+67.8139+382.021+66.9578L382.021+83.1544ZM377.892+39.8667C375.371+39.9219+373.502+40.564+372.285+41.7929C371.068+43.0218+370.459+44.6995+370.459+46.8259C370.459+49.1456+371.372+50.982+373.197+52.3352C374.212+53.0808+375.777+53.7712+377.892+54.4064L377.892+39.8667ZM382.108+100.718L377.892+100.718L377.892+92.4747C372.183+91.8672+367.924+90.6797+365.113+88.9123C360.158+85.7365+357.723+80.3238+357.81+72.6742L369.546+72.6742C369.952+76.1538+370.517+78.4873+371.242+79.6748C372.372+81.5251+374.588+82.7264+377.892+83.2787L377.892+65.5908L374.371+64.5966C368.836+63.0501+364.932+60.8961+362.657+58.1345C360.382+55.373+359.245+52.0453+359.245+48.1514C359.245+45.5832+359.687+43.2496+360.57+41.1508C361.454+39.052+362.693+37.2432+364.287+35.7243C366.344+33.7636+368.634+32.4105+371.155+31.6648C372.69+31.1954+374.936+30.8502+377.892+30.6292L377.892+25.1199L382.021+25.1199L382.021+30.7121C386.745+31.0711+390.454+32.1757+393.149+34.026C398.046+36.9809+400.581+41.7722+400.755+48.4L389.324+48.4C389.092+45.9422+388.657+44.1472+388.02+43.0149C386.918+41.0542+384.919+39.9772+382.021+39.7839L382.021+55.5663C388.918+57.8308+393.554+59.8329+395.93+61.5727C399.842+64.4723+401.798+68.5595+401.798+73.8341C401.798+80.7933+399.118+85.8469+393.757+88.9951C390.483+90.9282+386.6+92.0605+382.108+92.3919L382.108+100.718Z" opacity="1" fill="#ff7500"/>
</g>
<g opacity="1">
<path d="M592.021+83.1544C594.31+82.8782+595.977+82.3812+597.02+81.6632C598.845+80.3928+599.758+78.1974+599.758+75.0768C599.758+72.7018+598.903+70.824+597.194+69.4432C596.179+68.6423+594.455+67.8139+592.021+66.9578L592.021+83.1544ZM587.892+39.8667C585.371+39.9219+583.502+40.564+582.285+41.7929C581.068+43.0218+580.459+44.6995+580.459+46.8259C580.459+49.1456+581.372+50.982+583.197+52.3352C584.212+53.0808+585.777+53.7712+587.892+54.4064L587.892+39.8667ZM592.108+100.718L587.892+100.718L587.892+92.4747C582.183+91.8672+577.924+90.6797+575.113+88.9123C570.158+85.7365+567.723+80.3238+567.81+72.6742L579.546+72.6742C579.952+76.1538+580.517+78.4873+581.242+79.6748C582.372+81.5251+584.588+82.7264+587.892+83.2787L587.892+65.5908L584.371+64.5966C578.836+63.0501+574.932+60.8961+572.657+58.1345C570.382+55.373+569.245+52.0453+569.245+48.1514C569.245+45.5832+569.687+43.2496+570.57+41.1508C571.454+39.052+572.693+37.2432+574.287+35.7243C576.344+33.7636+578.634+32.4105+581.155+31.6648C582.69+31.1954+584.936+30.8502+587.892+30.6292L587.892+25.1199L592.021+25.1199L592.021+30.7121C596.745+31.0711+600.454+32.1757+603.149+34.026C608.046+36.9809+610.581+41.7722+610.755+48.4L599.324+48.4C599.092+45.9422+598.657+44.1472+598.02+43.0149C596.918+41.0542+594.919+39.9772+592.021+39.7839L592.021+55.5663C598.918+57.8308+603.554+59.8329+605.93+61.5727C609.842+64.4723+611.798+68.5595+611.798+73.8341C611.798+80.7933+609.118+85.8469+603.757+88.9951C600.483+90.9282+596.6+92.0605+592.108+92.3919L592.108+100.718Z" opacity="1" fill="#ff7500"/>
</g>
<g opacity="1">
<path d="M802.021+83.1544C804.31+82.8782+805.977+82.3812+807.02+81.6632C808.845+80.3928+809.758+78.1974+809.758+75.0768C809.758+72.7018+808.903+70.824+807.194+69.4432C806.179+68.6423+804.455+67.8139+802.021+66.9578L802.021+83.1544ZM797.892+39.8667C795.371+39.9219+793.502+40.564+792.285+41.7929C791.068+43.0218+790.459+44.6995+790.459+46.8259C790.459+49.1456+791.372+50.982+793.197+52.3352C794.212+53.0808+795.777+53.7712+797.892+54.4064L797.892+39.8667ZM802.108+100.718L797.892+100.718L797.892+92.4747C792.183+91.8672+787.924+90.6797+785.113+88.9123C780.158+85.7365+777.723+80.3238+777.81+72.6742L789.546+72.6742C789.952+76.1538+790.517+78.4873+791.242+79.6748C792.372+81.5251+794.588+82.7264+797.892+83.2787L797.892+65.5908L794.371+64.5966C788.836+63.0501+784.932+60.8961+782.657+58.1345C780.382+55.373+779.245+52.0453+779.245+48.1514C779.245+45.5832+779.687+43.2496+780.57+41.1508C781.454+39.052+782.693+37.2432+784.287+35.7243C786.344+33.7636+788.634+32.4105+791.155+31.6648C792.69+31.1954+794.936+30.8502+797.892+30.6292L797.892+25.1199L802.021+25.1199L802.021+30.7121C806.745+31.0711+810.454+32.1757+813.149+34.026C818.046+36.9809+820.581+41.7722+820.755+48.4L809.324+48.4C809.092+45.9422+808.657+44.1472+808.02+43.0149C806.918+41.0542+804.919+39.9772+802.021+39.7839L802.021+55.5663C808.918+57.8308+813.554+59.8329+815.93+61.5727C819.842+64.4723+821.798+68.5595+821.798+73.8341C821.798+80.7933+819.118+85.8469+813.757+88.9951C810.483+90.9282+806.6+92.0605+802.108+92.3919L802.108+100.718Z" opacity="1" fill="#ff7500"/>
</g>
<path d="M1115+25.86C1092.95+25.86+1075+43.8081+1075+65.86C1075+87.9119+1092.95+105.86+1115+105.86C1137.05+105.86+1155+87.9119+1155+65.86C1155+43.8081+1137.05+25.86+1115+25.86ZM1103.89+34.4538L1115+42.5267L1126.11+34.4538C1132.25+36.6186+1137.55+40.5158+1141.44+45.5801L1137.19+58.653L1148.29+66.7129C1148.12+73.4002+1146.02+79.5911+1142.49+84.7337L1128.71+84.7337L1124.47+97.8131C1121.46+98.6969+1118.29+99.1933+1115+99.1933C1111.71+99.1933+1108.54+98.6969+1105.53+97.8131L1101.28+84.7402L1087.52+84.7402C1083.98+79.5961+1081.88+73.4035+1081.71+66.7129L1092.81+58.6465L1088.56+45.5801C1092.45+40.5158+1097.75+36.6186+1103.89+34.4538ZM1115+49.1933L1099.23+60.6517L1105.25+79.1933L1124.75+79.1933L1130.77+60.6517L1115+49.1933Z" opacity="1" fill="#ffffff"/>
<path d="M1325+25.86C1302.95+25.86+1285+43.8081+1285+65.86C1285+87.9119+1302.95+105.86+1325+105.86C1347.05+105.86+1365+87.9119+1365+65.86C1365+43.8081+1347.05+25.86+1325+25.86ZM1313.89+34.4538L1325+42.5267L1336.11+34.4538C1342.25+36.6186+1347.55+40.5158+1351.44+45.5801L1347.19+58.653L1358.29+66.7129C1358.12+73.4002+1356.02+79.5911+1352.49+84.7337L1338.71+84.7337L1334.47+97.8131C1331.46+98.6969+1328.29+99.1933+1325+99.1933C1321.71+99.1933+1318.54+98.6969+1315.53+97.8131L1311.28+84.7402L1297.52+84.7402C1293.98+79.5961+1291.88+73.4035+1291.71+66.7129L1302.81+58.6465L1298.56+45.5801C1302.45+40.5158+1307.75+36.6186+1313.89+34.4538ZM1325+49.1933L1309.23+60.6517L1315.25+79.1933L1334.75+79.1933L1340.77+60.6517L1325+49.1933Z" opacity="1" fill="#ffffff"/>
<path d="M905+25.86C882.948+25.86+865+43.8081+865+65.86C865+87.9119+882.948+105.86+905+105.86C927.052+105.86+945+87.9119+945+65.86C945+43.8081+927.052+25.86+905+25.86ZM893.893+34.4538L905+42.5267L916.107+34.4538C922.25+36.6186+927.552+40.5158+931.439+45.5801L927.194+58.653L938.288+66.7129C938.119+73.4002+936.02+79.5911+932.487+84.7337L918.711+84.7337L914.466+97.8131C911.465+98.6969+908.293+99.1933+905+99.1933C901.707+99.1933+898.535+98.6969+895.534+97.8131L891.283+84.7402L877.52+84.7402C873.984+79.5961+871.881+73.4035+871.712+66.7129L882.812+58.6465L878.561+45.5801C882.448+40.5158+887.75+36.6186+893.893+34.4538ZM905+49.1933L889.225+60.6517L895.254+79.1933L914.746+79.1933L920.775+60.6517L905+49.1933Z" opacity="1" fill="#ffffff"/>
<g opacity="1">
<path d="M1012.02+83.1544C1014.31+82.8782+1015.98+82.3812+1017.02+81.6632C1018.85+80.3928+1019.76+78.1974+1019.76+75.0768C1019.76+72.7018+1018.9+70.824+1017.19+69.4432C1016.18+68.6423+1014.46+67.8139+1012.02+66.9578L1012.02+83.1544ZM1007.89+39.8667C1005.37+39.9219+1003.5+40.564+1002.28+41.7929C1001.07+43.0218+1000.46+44.6995+1000.46+46.8259C1000.46+49.1456+1001.37+50.982+1003.2+52.3352C1004.21+53.0808+1005.78+53.7712+1007.89+54.4064L1007.89+39.8667ZM1012.11+100.718L1007.89+100.718L1007.89+92.4747C1002.18+91.8672+997.924+90.6797+995.113+88.9123C990.158+85.7365+987.723+80.3238+987.81+72.6742L999.546+72.6742C999.952+76.1538+1000.52+78.4873+1001.24+79.6748C1002.37+81.5251+1004.59+82.7264+1007.89+83.2787L1007.89+65.5908L1004.37+64.5966C998.836+63.0501+994.932+60.8961+992.657+58.1345C990.382+55.373+989.245+52.0453+989.245+48.1514C989.245+45.5832+989.687+43.2496+990.57+41.1508C991.454+39.052+992.693+37.2432+994.287+35.7243C996.344+33.7636+998.634+32.4105+1001.15+31.6648C1002.69+31.1954+1004.94+30.8502+1007.89+30.6292L1007.89+25.1199L1012.02+25.1199L1012.02+30.7121C1016.74+31.0711+1020.45+32.1757+1023.15+34.026C1028.05+36.9809+1030.58+41.7722+1030.76+48.4L1019.32+48.4C1019.09+45.9422+1018.66+44.1472+1018.02+43.0149C1016.92+41.0542+1014.92+39.9772+1012.02+39.7839L1012.02+55.5663C1018.92+57.8308+1023.55+59.8329+1025.93+61.5727C1029.84+64.4723+1031.8+68.5595+1031.8+73.8341C1031.8+80.7933+1029.12+85.8469+1023.76+88.9951C1020.48+90.9282+1016.6+92.0605+1012.11+92.3919L1012.11+100.718Z" opacity="1" fill="#ff7500"/>
</g>
<g opacity="1">
<path d="M1222.02+83.1544C1224.31+82.8782+1225.98+82.3812+1227.02+81.6632C1228.85+80.3928+1229.76+78.1974+1229.76+75.0768C1229.76+72.7018+1228.9+70.824+1227.19+69.4432C1226.18+68.6423+1224.46+67.8139+1222.02+66.9578L1222.02+83.1544ZM1217.89+39.8667C1215.37+39.9219+1213.5+40.564+1212.28+41.7929C1211.07+43.0218+1210.46+44.6995+1210.46+46.8259C1210.46+49.1456+1211.37+50.982+1213.2+52.3352C1214.21+53.0808+1215.78+53.7712+1217.89+54.4064L1217.89+39.8667ZM1222.11+100.718L1217.89+100.718L1217.89+92.4747C1212.18+91.8672+1207.92+90.6797+1205.11+88.9123C1200.16+85.7365+1197.72+80.3238+1197.81+72.6742L1209.55+72.6742C1209.95+76.1538+1210.52+78.4873+1211.24+79.6748C1212.37+81.5251+1214.59+82.7264+1217.89+83.2787L1217.89+65.5908L1214.37+64.5966C1208.84+63.0501+1204.93+60.8961+1202.66+58.1345C1200.38+55.373+1199.24+52.0453+1199.24+48.1514C1199.24+45.5832+1199.69+43.2496+1200.57+41.1508C1201.45+39.052+1202.69+37.2432+1204.29+35.7243C1206.34+33.7636+1208.63+32.4105+1211.15+31.6648C1212.69+31.1954+1214.94+30.8502+1217.89+30.6292L1217.89+25.1199L1222.02+25.1199L1222.02+30.7121C1226.74+31.0711+1230.45+32.1757+1233.15+34.026C1238.05+36.9809+1240.58+41.7722+1240.76+48.4L1229.32+48.4C1229.09+45.9422+1228.66+44.1472+1228.02+43.0149C1226.92+41.0542+1224.92+39.9772+1222.02+39.7839L1222.02+55.5663C1228.92+57.8308+1233.55+59.8329+1235.93+61.5727C1239.84+64.4723+1241.8+68.5595+1241.8+73.8341C1241.8+80.7933+1239.12+85.8469+1233.76+88.9951C1230.48+90.9282+1226.6+92.0605+1222.11+92.3919L1222.11+100.718Z" opacity="1" fill="#ff7500"/>
</g>
<g opacity="1">
<path d="M1432.02+83.1544C1434.31+82.8782+1435.98+82.3812+1437.02+81.6632C1438.85+80.3928+1439.76+78.1974+1439.76+75.0768C1439.76+72.7018+1438.9+70.824+1437.19+69.4432C1436.18+68.6423+1434.46+67.8139+1432.02+66.9578L1432.02+83.1544ZM1427.89+39.8667C1425.37+39.9219+1423.5+40.564+1422.28+41.7929C1421.07+43.0218+1420.46+44.6995+1420.46+46.8259C1420.46+49.1456+1421.37+50.982+1423.2+52.3352C1424.21+53.0808+1425.78+53.7712+1427.89+54.4064L1427.89+39.8667ZM1432.11+100.718L1427.89+100.718L1427.89+92.4747C1422.18+91.8672+1417.92+90.6797+1415.11+88.9123C1410.16+85.7365+1407.72+80.3238+1407.81+72.6742L1419.55+72.6742C1419.95+76.1538+1420.52+78.4873+1421.24+79.6748C1422.37+81.5251+1424.59+82.7264+1427.89+83.2787L1427.89+65.5908L1424.37+64.5966C1418.84+63.0501+1414.93+60.8961+1412.66+58.1345C1410.38+55.373+1409.24+52.0453+1409.24+48.1514C1409.24+45.5832+1409.69+43.2496+1410.57+41.1508C1411.45+39.052+1412.69+37.2432+1414.29+35.7243C1416.34+33.7636+1418.63+32.4105+1421.15+31.6648C1422.69+31.1954+1424.94+30.8502+1427.89+30.6292L1427.89+25.1199L1432.02+25.1199L1432.02+30.7121C1436.74+31.0711+1440.45+32.1757+1443.15+34.026C1448.05+36.9809+1450.58+41.7722+1450.76+48.4L1439.32+48.4C1439.09+45.9422+1438.66+44.1472+1438.02+43.0149C1436.92+41.0542+1434.92+39.9772+1432.02+39.7839L1432.02+55.5663C1438.92+57.8308+1443.55+59.8329+1445.93+61.5727C1449.84+64.4723+1451.8+68.5595+1451.8+73.8341C1451.8+80.7933+1449.12+85.8469+1443.76+88.9951C1440.48+90.9282+1436.6+92.0605+1432.11+92.3919L1432.11+100.718Z" opacity="1" fill="#ff7500"/>
</g>
<g opacity="1">
<path d="M277.021+203.154C279.31+202.878+280.977+202.381+282.02+201.663C283.845+200.393+284.758+198.197+284.758+195.077C284.758+192.702+283.903+190.824+282.194+189.443C281.179+188.642+279.455+187.814+277.021+186.958L277.021+203.154ZM272.892+159.867C270.371+159.922+268.502+160.564+267.285+161.793C266.068+163.022+265.459+164.699+265.459+166.826C265.459+169.146+266.372+170.982+268.197+172.335C269.212+173.081+270.777+173.771+272.892+174.406L272.892+159.867ZM277.108+220.718L272.892+220.718L272.892+212.475C267.183+211.867+262.924+210.68+260.113+208.912C255.158+205.736+252.723+200.324+252.81+192.674L264.546+192.674C264.952+196.154+265.517+198.487+266.242+199.675C267.372+201.525+269.588+202.726+272.892+203.279L272.892+185.591L269.371+184.597C263.836+183.05+259.932+180.896+257.657+178.135C255.382+175.373+254.245+172.045+254.245+168.151C254.245+165.583+254.687+163.25+255.57+161.151C256.454+159.052+257.693+157.243+259.287+155.724C261.344+153.764+263.634+152.41+266.155+151.665C267.69+151.195+269.936+150.85+272.892+150.629L272.892+145.12L277.021+145.12L277.021+150.712C281.745+151.071+285.454+152.176+288.149+154.026C293.046+156.981+295.581+161.772+295.755+168.4L284.324+168.4C284.092+165.942+283.657+164.147+283.02+163.015C281.918+161.054+279.919+159.977+277.021+159.784L277.021+175.566C283.918+177.831+288.554+179.833+290.93+181.573C294.842+184.472+296.798+188.559+296.798+193.834C296.798+200.793+294.118+205.847+288.757+208.995C285.483+210.928+281.6+212.06+277.108+212.392L277.108+220.718Z" opacity="1" fill="#ff7500"/>
</g>
<path d="M590+145.86C567.948+145.86+550+163.808+550+185.86C550+207.912+567.948+225.86+590+225.86C612.052+225.86+630+207.912+630+185.86C630+163.808+612.052+145.86+590+145.86ZM578.893+154.454L590+162.527L601.107+154.454C607.25+156.619+612.552+160.516+616.439+165.58L612.194+178.653L623.288+186.713C623.119+193.4+621.02+199.591+617.487+204.734L603.711+204.734L599.466+217.813C596.465+218.697+593.293+219.193+590+219.193C586.707+219.193+583.535+218.697+580.534+217.813L576.283+204.74L562.52+204.74C558.984+199.596+556.881+193.404+556.712+186.713L567.812+178.646L563.561+165.58C567.448+160.516+572.75+156.619+578.893+154.454ZM590+169.193L574.225+180.652L580.254+199.193L599.746+199.193L605.775+180.652L590+169.193Z" opacity="1" fill="#ffffff"/>
<path d="M800+145.86C777.948+145.86+760+163.808+760+185.86C760+207.912+777.948+225.86+800+225.86C822.052+225.86+840+207.912+840+185.86C840+163.808+822.052+145.86+800+145.86ZM788.893+154.454L800+162.527L811.107+154.454C817.25+156.619+822.552+160.516+826.439+165.58L822.194+178.653L833.288+186.713C833.119+193.4+831.02+199.591+827.487+204.734L813.711+204.734L809.466+217.813C806.465+218.697+803.293+219.193+800+219.193C796.707+219.193+793.535+218.697+790.534+217.813L786.283+204.74L772.52+204.74C768.984+199.596+766.881+193.404+766.712+186.713L777.812+178.646L773.561+165.58C777.448+160.516+782.75+156.619+788.893+154.454ZM800+169.193L784.225+180.652L790.254+199.193L809.746+199.193L815.775+180.652L800+169.193Z" opacity="1" fill="#ffffff"/>
<path d="M170+145.86C147.948+145.86+130+163.808+130+185.86C130+207.912+147.948+225.86+170+225.86C192.052+225.86+210+207.912+210+185.86C210+163.808+192.052+145.86+170+145.86ZM158.893+154.454L170+162.527L181.107+154.454C187.25+156.619+192.552+160.516+196.439+165.58L192.194+178.653L203.288+186.713C203.119+193.4+201.02+199.591+197.487+204.734L183.711+204.734L179.466+217.813C176.465+218.697+173.293+219.193+170+219.193C166.707+219.193+163.535+218.697+160.534+217.813L156.283+204.74L142.52+204.74C138.984+199.596+136.881+193.404+136.712+186.713L147.812+178.646L143.561+165.58C147.448+160.516+152.75+156.619+158.893+154.454ZM170+169.193L154.225+180.652L160.254+199.193L179.746+199.193L185.775+180.652L170+169.193Z" opacity="1" fill="#ffffff"/>
<path d="M380+145.86C357.948+145.86+340+163.808+340+185.86C340+207.912+357.948+225.86+380+225.86C402.052+225.86+420+207.912+420+185.86C420+163.808+402.052+145.86+380+145.86ZM368.893+154.454L380+162.527L391.107+154.454C397.25+156.619+402.552+160.516+406.439+165.58L402.194+178.653L413.288+186.713C413.119+193.4+411.02+199.591+407.487+204.734L393.711+204.734L389.466+217.813C386.465+218.697+383.293+219.193+380+219.193C376.707+219.193+373.535+218.697+370.534+217.813L366.283+204.74L352.52+204.74C348.984+199.596+346.881+193.404+346.712+186.713L357.812+178.646L353.561+165.58C357.448+160.516+362.75+156.619+368.893+154.454ZM380+169.193L364.225+180.652L370.254+199.193L389.746+199.193L395.775+180.652L380+169.193Z" opacity="1" fill="#ffffff"/>
<g opacity="1">
<path d="M487.021+203.154C489.31+202.878+490.977+202.381+492.02+201.663C493.845+200.393+494.758+198.197+494.758+195.077C494.758+192.702+493.903+190.824+492.194+189.443C491.179+188.642+489.455+187.814+487.021+186.958L487.021+203.154ZM482.892+159.867C480.371+159.922+478.502+160.564+477.285+161.793C476.068+163.022+475.459+164.699+475.459+166.826C475.459+169.146+476.372+170.982+478.197+172.335C479.212+173.081+480.777+173.771+482.892+174.406L482.892+159.867ZM487.108+220.718L482.892+220.718L482.892+212.475C477.183+211.867+472.924+210.68+470.113+208.912C465.158+205.736+462.723+200.324+462.81+192.674L474.546+192.674C474.952+196.154+475.517+198.487+476.242+199.675C477.372+201.525+479.588+202.726+482.892+203.279L482.892+185.591L479.371+184.597C473.836+183.05+469.932+180.896+467.657+178.135C465.382+175.373+464.245+172.045+464.245+168.151C464.245+165.583+464.687+163.25+465.57+161.151C466.454+159.052+467.693+157.243+469.287+155.724C471.344+153.764+473.634+152.41+476.155+151.665C477.69+151.195+479.936+150.85+482.892+150.629L482.892+145.12L487.021+145.12L487.021+150.712C491.745+151.071+495.454+152.176+498.149+154.026C503.046+156.981+505.581+161.772+505.755+168.4L494.324+168.4C494.092+165.942+493.657+164.147+493.02+163.015C491.918+161.054+489.919+159.977+487.021+159.784L487.021+175.566C493.918+177.831+498.554+179.833+500.93+181.573C504.842+184.472+506.798+188.559+506.798+193.834C506.798+200.793+504.118+205.847+498.757+208.995C495.483+210.928+491.6+212.06+487.108+212.392L487.108+220.718Z" opacity="1" fill="#ff7500"/>
</g>
<g opacity="1">
<path d="M697.021+203.154C699.31+202.878+700.977+202.381+702.02+201.663C703.845+200.393+704.758+198.197+704.758+195.077C704.758+192.702+703.903+190.824+702.194+189.443C701.179+188.642+699.455+187.814+697.021+186.958L697.021+203.154ZM692.892+159.867C690.371+159.922+688.502+160.564+687.285+161.793C686.068+163.022+685.459+164.699+685.459+166.826C685.459+169.146+686.372+170.982+688.197+172.335C689.212+173.081+690.777+173.771+692.892+174.406L692.892+159.867ZM697.108+220.718L692.892+220.718L692.892+212.475C687.183+211.867+682.924+210.68+680.113+208.912C675.158+205.736+672.723+200.324+672.81+192.674L684.546+192.674C684.952+196.154+685.517+198.487+686.242+199.675C687.372+201.525+689.588+202.726+692.892+203.279L692.892+185.591L689.371+184.597C683.836+183.05+679.932+180.896+677.657+178.135C675.382+175.373+674.245+172.045+674.245+168.151C674.245+165.583+674.687+163.25+675.57+161.151C676.454+159.052+677.693+157.243+679.287+155.724C681.344+153.764+683.634+152.41+686.155+151.665C687.69+151.195+689.936+150.85+692.892+150.629L692.892+145.12L697.021+145.12L697.021+150.712C701.745+151.071+705.454+152.176+708.149+154.026C713.046+156.981+715.581+161.772+715.755+168.4L704.324+168.4C704.092+165.942+703.657+164.147+703.02+163.015C701.918+161.054+699.919+159.977+697.021+159.784L697.021+175.566C703.918+177.831+708.554+179.833+710.93+181.573C714.842+184.472+716.798+188.559+716.798+193.834C716.798+200.793+714.118+205.847+708.757+208.995C705.483+210.928+701.6+212.06+697.108+212.392L697.108+220.718Z" opacity="1" fill="#ff7500"/>
</g>
<g opacity="1">
<path d="M907.021+203.154C909.31+202.878+910.977+202.381+912.02+201.663C913.845+200.393+914.758+198.197+914.758+195.077C914.758+192.702+913.903+190.824+912.194+189.443C911.179+188.642+909.455+187.814+907.021+186.958L907.021+203.154ZM902.892+159.867C900.371+159.922+898.502+160.564+897.285+161.793C896.068+163.022+895.459+164.699+895.459+166.826C895.459+169.146+896.372+170.982+898.197+172.335C899.212+173.081+900.777+173.771+902.892+174.406L902.892+159.867ZM907.108+220.718L902.892+220.718L902.892+212.475C897.183+211.867+892.924+210.68+890.113+208.912C885.158+205.736+882.723+200.324+882.81+192.674L894.546+192.674C894.952+196.154+895.517+198.487+896.242+199.675C897.372+201.525+899.588+202.726+902.892+203.279L902.892+185.591L899.371+184.597C893.836+183.05+889.932+180.896+887.657+178.135C885.382+175.373+884.245+172.045+884.245+168.151C884.245+165.583+884.687+163.25+885.57+161.151C886.454+159.052+887.693+157.243+889.287+155.724C891.344+153.764+893.634+152.41+896.155+151.665C897.69+151.195+899.936+150.85+902.892+150.629L902.892+145.12L907.021+145.12L907.021+150.712C911.745+151.071+915.454+152.176+918.149+154.026C923.046+156.981+925.581+161.772+925.755+168.4L914.324+168.4C914.092+165.942+913.657+164.147+913.02+163.015C911.918+161.054+909.919+159.977+907.021+159.784L907.021+175.566C913.918+177.831+918.554+179.833+920.93+181.573C924.842+184.472+926.798+188.559+926.798+193.834C926.798+200.793+924.118+205.847+918.757+208.995C915.483+210.928+911.6+212.06+907.108+212.392L907.108+220.718Z" opacity="1" fill="#ff7500"/>
</g>
<path d="M1220+145.86C1197.95+145.86+1180+163.808+1180+185.86C1180+207.912+1197.95+225.86+1220+225.86C1242.05+225.86+1260+207.912+1260+185.86C1260+163.808+1242.05+145.86+1220+145.86ZM1208.89+154.454L1220+162.527L1231.11+154.454C1237.25+156.619+1242.55+160.516+1246.44+165.58L1242.19+178.653L1253.29+186.713C1253.12+193.4+1251.02+199.591+1247.49+204.734L1233.71+204.734L1229.47+217.813C1226.46+218.697+1223.29+219.193+1220+219.193C1216.71+219.193+1213.54+218.697+1210.53+217.813L1206.28+204.74L1192.52+204.74C1188.98+199.596+1186.88+193.404+1186.71+186.713L1197.81+178.646L1193.56+165.58C1197.45+160.516+1202.75+156.619+1208.89+154.454ZM1220+169.193L1204.23+180.652L1210.25+199.193L1229.75+199.193L1235.77+180.652L1220+169.193Z" opacity="1" fill="#ffffff"/>
<path d="M1430+145.86C1407.95+145.86+1390+163.808+1390+185.86C1390+207.912+1407.95+225.86+1430+225.86C1452.05+225.86+1470+207.912+1470+185.86C1470+163.808+1452.05+145.86+1430+145.86ZM1418.89+154.454L1430+162.527L1441.11+154.454C1447.25+156.619+1452.55+160.516+1456.44+165.58L1452.19+178.653L1463.29+186.713C1463.12+193.4+1461.02+199.591+1457.49+204.734L1443.71+204.734L1439.47+217.813C1436.46+218.697+1433.29+219.193+1430+219.193C1426.71+219.193+1423.54+218.697+1420.53+217.813L1416.28+204.74L1402.52+204.74C1398.98+199.596+1396.88+193.404+1396.71+186.713L1407.81+178.646L1403.56+165.58C1407.45+160.516+1412.75+156.619+1418.89+154.454ZM1430+169.193L1414.23+180.652L1420.25+199.193L1439.75+199.193L1445.77+180.652L1430+169.193Z" opacity="1" fill="#ffffff"/>
<path d="M1010+145.86C987.948+145.86+970+163.808+970+185.86C970+207.912+987.948+225.86+1010+225.86C1032.05+225.86+1050+207.912+1050+185.86C1050+163.808+1032.05+145.86+1010+145.86ZM998.893+154.454L1010+162.527L1021.11+154.454C1027.25+156.619+1032.55+160.516+1036.44+165.58L1032.19+178.653L1043.29+186.713C1043.12+193.4+1041.02+199.591+1037.49+204.734L1023.71+204.734L1019.47+217.813C1016.46+218.697+1013.29+219.193+1010+219.193C1006.71+219.193+1003.54+218.697+1000.53+217.813L996.283+204.74L982.52+204.74C978.984+199.596+976.881+193.404+976.712+186.713L987.812+178.646L983.561+165.58C987.448+160.516+992.75+156.619+998.893+154.454ZM1010+169.193L994.225+180.652L1000.25+199.193L1019.75+199.193L1025.77+180.652L1010+169.193Z" opacity="1" fill="#ffffff"/>
<g opacity="1">
<path d="M1117.02+203.154C1119.31+202.878+1120.98+202.381+1122.02+201.663C1123.85+200.393+1124.76+198.197+1124.76+195.077C1124.76+192.702+1123.9+190.824+1122.19+189.443C1121.18+188.642+1119.46+187.814+1117.02+186.958L1117.02+203.154ZM1112.89+159.867C1110.37+159.922+1108.5+160.564+1107.28+161.793C1106.07+163.022+1105.46+164.699+1105.46+166.826C1105.46+169.146+1106.37+170.982+1108.2+172.335C1109.21+173.081+1110.78+173.771+1112.89+174.406L1112.89+159.867ZM1117.11+220.718L1112.89+220.718L1112.89+212.475C1107.18+211.867+1102.92+210.68+1100.11+208.912C1095.16+205.736+1092.72+200.324+1092.81+192.674L1104.55+192.674C1104.95+196.154+1105.52+198.487+1106.24+199.675C1107.37+201.525+1109.59+202.726+1112.89+203.279L1112.89+185.591L1109.37+184.597C1103.84+183.05+1099.93+180.896+1097.66+178.135C1095.38+175.373+1094.24+172.045+1094.24+168.151C1094.24+165.583+1094.69+163.25+1095.57+161.151C1096.45+159.052+1097.69+157.243+1099.29+155.724C1101.34+153.764+1103.63+152.41+1106.15+151.665C1107.69+151.195+1109.94+150.85+1112.89+150.629L1112.89+145.12L1117.02+145.12L1117.02+150.712C1121.74+151.071+1125.45+152.176+1128.15+154.026C1133.05+156.981+1135.58+161.772+1135.76+168.4L1124.32+168.4C1124.09+165.942+1123.66+164.147+1123.02+163.015C1121.92+161.054+1119.92+159.977+1117.02+159.784L1117.02+175.566C1123.92+177.831+1128.55+179.833+1130.93+181.573C1134.84+184.472+1136.8+188.559+1136.8+193.834C1136.8+200.793+1134.12+205.847+1128.76+208.995C1125.48+210.928+1121.6+212.06+1117.11+212.392L1117.11+220.718Z" opacity="1" fill="#ff7500"/>
</g>
<g opacity="1">
<path d="M1327.02+203.154C1329.31+202.878+1330.98+202.381+1332.02+201.663C1333.85+200.393+1334.76+198.197+1334.76+195.077C1334.76+192.702+1333.9+190.824+1332.19+189.443C1331.18+188.642+1329.46+187.814+1327.02+186.958L1327.02+203.154ZM1322.89+159.867C1320.37+159.922+1318.5+160.564+1317.28+161.793C1316.07+163.022+1315.46+164.699+1315.46+166.826C1315.46+169.146+1316.37+170.982+1318.2+172.335C1319.21+173.081+1320.78+173.771+1322.89+174.406L1322.89+159.867ZM1327.11+220.718L1322.89+220.718L1322.89+212.475C1317.18+211.867+1312.92+210.68+1310.11+208.912C1305.16+205.736+1302.72+200.324+1302.81+192.674L1314.55+192.674C1314.95+196.154+1315.52+198.487+1316.24+199.675C1317.37+201.525+1319.59+202.726+1322.89+203.279L1322.89+185.591L1319.37+184.597C1313.84+183.05+1309.93+180.896+1307.66+178.135C1305.38+175.373+1304.24+172.045+1304.24+168.151C1304.24+165.583+1304.69+163.25+1305.57+161.151C1306.45+159.052+1307.69+157.243+1309.29+155.724C1311.34+153.764+1313.63+152.41+1316.15+151.665C1317.69+151.195+1319.94+150.85+1322.89+150.629L1322.89+145.12L1327.02+145.12L1327.02+150.712C1331.74+151.071+1335.45+152.176+1338.15+154.026C1343.05+156.981+1345.58+161.772+1345.76+168.4L1334.32+168.4C1334.09+165.942+1333.66+164.147+1333.02+163.015C1331.92+161.054+1329.92+159.977+1327.02+159.784L1327.02+175.566C1333.92+177.831+1338.55+179.833+1340.93+181.573C1344.84+184.472+1346.8+188.559+1346.8+193.834C1346.8+200.793+1344.12+205.847+1338.76+208.995C1335.48+210.928+1331.6+212.06+1327.11+212.392L1327.11+220.718Z" opacity="1" fill="#ff7500"/>
</g>
<g opacity="1">
<path d="M67.0212+203.154C69.3104+202.878+70.9766+202.381+72.0198+201.663C73.8454+200.393+74.7582+198.197+74.7582+195.077C74.7582+192.702+73.9034+190.824+72.1937+189.443C71.1795+188.642+69.4553+187.814+67.0212+186.958L67.0212+203.154ZM62.8919+159.867C60.3708+159.922+58.5018+160.564+57.2847+161.793C56.0676+163.022+55.4591+164.699+55.4591+166.826C55.4591+169.146+56.3719+170.982+58.1975+172.335C59.2117+173.081+60.7765+173.771+62.8919+174.406L62.8919+159.867ZM67.1081+220.718L62.8919+220.718L62.8919+212.475C57.1833+211.867+52.9236+210.68+50.1127+208.912C45.1575+205.736+42.7234+200.324+42.8104+192.674L54.5463+192.674C54.952+196.154+55.5171+198.487+56.2415+199.675C57.3716+201.525+59.5884+202.726+62.8919+203.279L62.8919+185.591L59.3711+184.597C53.8364+183.05+49.9316+180.896+47.6569+178.135C45.3821+175.373+44.2448+172.045+44.2448+168.151C44.2448+165.583+44.6867+163.25+45.5705+161.151C46.4543+159.052+47.6931+157.243+49.2869+155.724C51.3443+153.764+53.6335+152.41+56.1546+151.665C57.6904+151.195+59.9362+150.85+62.8919+150.629L62.8919+145.12L67.0212+145.12L67.0212+150.712C71.7445+151.071+75.4537+152.176+78.1486+154.026C83.0458+156.981+85.5814+161.772+85.7552+168.4L74.3236+168.4C74.0917+165.942+73.6571+164.147+73.0196+163.015C71.9184+161.054+69.919+159.977+67.0212+159.784L67.0212+175.566C73.9179+177.831+78.5543+179.833+80.9305+181.573C84.8425+184.472+86.7984+188.559+86.7984+193.834C86.7984+200.793+84.118+205.847+78.7571+208.995C75.4827+210.928+71.5997+212.06+67.1081+212.392L67.1081+220.718Z" opacity="1" fill="#ff7500"/>
</g>
<g opacity="1">
<path d="M172.021+322.294C174.31+322.018+175.977+321.521+177.02+320.803C178.845+319.533+179.758+317.337+179.758+314.217C179.758+311.842+178.903+309.964+177.194+308.583C176.179+307.782+174.455+306.954+172.021+306.098L172.021+322.294ZM167.892+279.007C165.371+279.062+163.502+279.704+162.285+280.933C161.068+282.162+160.459+283.839+160.459+285.966C160.459+288.286+161.372+290.122+163.197+291.475C164.212+292.221+165.777+292.911+167.892+293.546L167.892+279.007ZM172.108+339.858L167.892+339.858L167.892+331.615C162.183+331.007+157.924+329.82+155.113+328.052C150.158+324.876+147.723+319.464+147.81+311.814L159.546+311.814C159.952+315.294+160.517+317.627+161.242+318.815C162.372+320.665+164.588+321.866+167.892+322.419L167.892+304.731L164.371+303.737C158.836+302.19+154.932+300.036+152.657+297.275C150.382+294.513+149.245+291.185+149.245+287.291C149.245+284.723+149.687+282.39+150.57+280.291C151.454+278.192+152.693+276.383+154.287+274.864C156.344+272.904+158.634+271.55+161.155+270.805C162.69+270.335+164.936+269.99+167.892+269.769L167.892+264.26L172.021+264.26L172.021+269.852C176.745+270.211+180.454+271.316+183.149+273.166C188.046+276.121+190.581+280.912+190.755+287.54L179.324+287.54C179.092+285.082+178.657+283.287+178.02+282.155C176.918+280.194+174.919+279.117+172.021+278.924L172.021+294.706C178.918+296.971+183.554+298.973+185.93+300.713C189.842+303.612+191.798+307.699+191.798+312.974C191.798+319.933+189.118+324.987+183.757+328.135C180.483+330.068+176.6+331.2+172.108+331.532L172.108+339.858Z" opacity="1" fill="#ff7500"/>
</g>
<path d="M485+265C462.948+265+445+282.948+445+305C445+327.052+462.948+345+485+345C507.052+345+525+327.052+525+305C525+282.948+507.052+265+485+265ZM473.893+273.594L485+281.667L496.107+273.594C502.25+275.759+507.552+279.656+511.439+284.72L507.194+297.793L518.288+305.853C518.119+312.54+516.02+318.731+512.487+323.874L498.711+323.874L494.466+336.953C491.465+337.837+488.293+338.333+485+338.333C481.707+338.333+478.535+337.837+475.534+336.953L471.283+323.88L457.52+323.88C453.984+318.736+451.881+312.544+451.712+305.853L462.812+297.786L458.561+284.72C462.448+279.656+467.75+275.759+473.893+273.594ZM485+288.333L469.225+299.792L475.254+318.333L494.746+318.333L500.775+299.792L485+288.333Z" opacity="1" fill="#ffffff"/>
<path d="M695+265C672.948+265+655+282.948+655+305C655+327.052+672.948+345+695+345C717.052+345+735+327.052+735+305C735+282.948+717.052+265+695+265ZM683.893+273.594L695+281.667L706.107+273.594C712.25+275.759+717.552+279.656+721.439+284.72L717.194+297.793L728.288+305.853C728.119+312.54+726.02+318.731+722.487+323.874L708.711+323.874L704.466+336.953C701.465+337.837+698.293+338.333+695+338.333C691.707+338.333+688.535+337.837+685.534+336.953L681.283+323.88L667.52+323.88C663.984+318.736+661.881+312.544+661.712+305.853L672.812+297.786L668.561+284.72C672.448+279.656+677.75+275.759+683.893+273.594ZM695+288.333L679.225+299.792L685.254+318.333L704.746+318.333L710.775+299.792L695+288.333Z" opacity="1" fill="#ffffff"/>
<path d="M65+265C42.9481+265+25+282.948+25+305C25+327.052+42.9481+345+65+345C87.0519+345+105+327.052+105+305C105+282.948+87.0519+265+65+265ZM53.8932+273.594L65+281.667L76.1068+273.594C82.2502+275.759+87.5523+279.656+91.4388+284.72L87.194+297.793L98.2878+305.853C98.1191+312.54+96.0196+318.731+92.487+323.874L78.7109+323.874L74.4661+336.953C71.465+337.837+68.2926+338.333+65+338.333C61.7074+338.333+58.535+337.837+55.5339+336.953L51.2826+323.88L37.5195+323.88C33.9839+318.736+31.881+312.544+31.7122+305.853L42.8125+297.786L38.5612+284.72C42.4477+279.656+47.7498+275.759+53.8932+273.594ZM65+288.333L49.2253+299.792L55.2539+318.333L74.7461+318.333L80.7747+299.792L65+288.333Z" opacity="1" fill="#ffffff"/>
<path d="M275+265C252.948+265+235+282.948+235+305C235+327.052+252.948+345+275+345C297.052+345+315+327.052+315+305C315+282.948+297.052+265+275+265ZM263.893+273.594L275+281.667L286.107+273.594C292.25+275.759+297.552+279.656+301.439+284.72L297.194+297.793L308.288+305.853C308.119+312.54+306.02+318.731+302.487+323.874L288.711+323.874L284.466+336.953C281.465+337.837+278.293+338.333+275+338.333C271.707+338.333+268.535+337.837+265.534+336.953L261.283+323.88L247.52+323.88C243.984+318.736+241.881+312.544+241.712+305.853L252.812+297.786L248.561+284.72C252.448+279.656+257.75+275.759+263.893+273.594ZM275+288.333L259.225+299.792L265.254+318.333L284.746+318.333L290.775+299.792L275+288.333Z" opacity="1" fill="#ffffff"/>
<g opacity="1">
<path d="M382.021+322.294C384.31+322.018+385.977+321.521+387.02+320.803C388.845+319.533+389.758+317.337+389.758+314.217C389.758+311.842+388.903+309.964+387.194+308.583C386.179+307.782+384.455+306.954+382.021+306.098L382.021+322.294ZM377.892+279.007C375.371+279.062+373.502+279.704+372.285+280.933C371.068+282.162+370.459+283.839+370.459+285.966C370.459+288.286+371.372+290.122+373.197+291.475C374.212+292.221+375.777+292.911+377.892+293.546L377.892+279.007ZM382.108+339.858L377.892+339.858L377.892+331.615C372.183+331.007+367.924+329.82+365.113+328.052C360.158+324.876+357.723+319.464+357.81+311.814L369.546+311.814C369.952+315.294+370.517+317.627+371.242+318.815C372.372+320.665+374.588+321.866+377.892+322.419L377.892+304.731L374.371+303.737C368.836+302.19+364.932+300.036+362.657+297.275C360.382+294.513+359.245+291.185+359.245+287.291C359.245+284.723+359.687+282.39+360.57+280.291C361.454+278.192+362.693+276.383+364.287+274.864C366.344+272.904+368.634+271.55+371.155+270.805C372.69+270.335+374.936+269.99+377.892+269.769L377.892+264.26L382.021+264.26L382.021+269.852C386.745+270.211+390.454+271.316+393.149+273.166C398.046+276.121+400.581+280.912+400.755+287.54L389.324+287.54C389.092+285.082+388.657+283.287+388.02+282.155C386.918+280.194+384.919+279.117+382.021+278.924L382.021+294.706C388.918+296.971+393.554+298.973+395.93+300.713C399.842+303.612+401.798+307.699+401.798+312.974C401.798+319.933+399.118+324.987+393.757+328.135C390.483+330.068+386.6+331.2+382.108+331.532L382.108+339.858Z" opacity="1" fill="#ff7500"/>
</g>
<g opacity="1">
<path d="M592.021+322.294C594.31+322.018+595.977+321.521+597.02+320.803C598.845+319.533+599.758+317.337+599.758+314.217C599.758+311.842+598.903+309.964+597.194+308.583C596.179+307.782+594.455+306.954+592.021+306.098L592.021+322.294ZM587.892+279.007C585.371+279.062+583.502+279.704+582.285+280.933C581.068+282.162+580.459+283.839+580.459+285.966C580.459+288.286+581.372+290.122+583.197+291.475C584.212+292.221+585.777+292.911+587.892+293.546L587.892+279.007ZM592.108+339.858L587.892+339.858L587.892+331.615C582.183+331.007+577.924+329.82+575.113+328.052C570.158+324.876+567.723+319.464+567.81+311.814L579.546+311.814C579.952+315.294+580.517+317.627+581.242+318.815C582.372+320.665+584.588+321.866+587.892+322.419L587.892+304.731L584.371+303.737C578.836+302.19+574.932+300.036+572.657+297.275C570.382+294.513+569.245+291.185+569.245+287.291C569.245+284.723+569.687+282.39+570.57+280.291C571.454+278.192+572.693+276.383+574.287+274.864C576.344+272.904+578.634+271.55+581.155+270.805C582.69+270.335+584.936+269.99+587.892+269.769L587.892+264.26L592.021+264.26L592.021+269.852C596.745+270.211+600.454+271.316+603.149+273.166C608.046+276.121+610.581+280.912+610.755+287.54L599.324+287.54C599.092+285.082+598.657+283.287+598.02+282.155C596.918+280.194+594.919+279.117+592.021+278.924L592.021+294.706C598.918+296.971+603.554+298.973+605.93+300.713C609.842+303.612+611.798+307.699+611.798+312.974C611.798+319.933+609.118+324.987+603.757+328.135C600.483+330.068+596.6+331.2+592.108+331.532L592.108+339.858Z" opacity="1" fill="#ff7500"/>
</g>
<g opacity="1">
<path d="M802.021+322.294C804.31+322.018+805.977+321.521+807.02+320.803C808.845+319.533+809.758+317.337+809.758+314.217C809.758+311.842+808.903+309.964+807.194+308.583C806.179+307.782+804.455+306.954+802.021+306.098L802.021+322.294ZM797.892+279.007C795.371+279.062+793.502+279.704+792.285+280.933C791.068+282.162+790.459+283.839+790.459+285.966C790.459+288.286+791.372+290.122+793.197+291.475C794.212+292.221+795.777+292.911+797.892+293.546L797.892+279.007ZM802.108+339.858L797.892+339.858L797.892+331.615C792.183+331.007+787.924+329.82+785.113+328.052C780.158+324.876+777.723+319.464+777.81+311.814L789.546+311.814C789.952+315.294+790.517+317.627+791.242+318.815C792.372+320.665+794.588+321.866+797.892+322.419L797.892+304.731L794.371+303.737C788.836+302.19+784.932+300.036+782.657+297.275C780.382+294.513+779.245+291.185+779.245+287.291C779.245+284.723+779.687+282.39+780.57+280.291C781.454+278.192+782.693+276.383+784.287+274.864C786.344+272.904+788.634+271.55+791.155+270.805C792.69+270.335+794.936+269.99+797.892+269.769L797.892+264.26L802.021+264.26L802.021+269.852C806.745+270.211+810.454+271.316+813.149+273.166C818.046+276.121+820.581+280.912+820.755+287.54L809.324+287.54C809.092+285.082+808.657+283.287+808.02+282.155C806.918+280.194+804.919+279.117+802.021+278.924L802.021+294.706C808.918+296.971+813.554+298.973+815.93+300.713C819.842+303.612+821.798+307.699+821.798+312.974C821.798+319.933+819.118+324.987+813.757+328.135C810.483+330.068+806.6+331.2+802.108+331.532L802.108+339.858Z" opacity="1" fill="#ff7500"/>
</g>
<path d="M1115+265C1092.95+265+1075+282.948+1075+305C1075+327.052+1092.95+345+1115+345C1137.05+345+1155+327.052+1155+305C1155+282.948+1137.05+265+1115+265ZM1103.89+273.594L1115+281.667L1126.11+273.594C1132.25+275.759+1137.55+279.656+1141.44+284.72L1137.19+297.793L1148.29+305.853C1148.12+312.54+1146.02+318.731+1142.49+323.874L1128.71+323.874L1124.47+336.953C1121.46+337.837+1118.29+338.333+1115+338.333C1111.71+338.333+1108.54+337.837+1105.53+336.953L1101.28+323.88L1087.52+323.88C1083.98+318.736+1081.88+312.544+1081.71+305.853L1092.81+297.786L1088.56+284.72C1092.45+279.656+1097.75+275.759+1103.89+273.594ZM1115+288.333L1099.23+299.792L1105.25+318.333L1124.75+318.333L1130.77+299.792L1115+288.333Z" opacity="1" fill="#ffffff"/>
<path d="M1325+265C1302.95+265+1285+282.948+1285+305C1285+327.052+1302.95+345+1325+345C1347.05+345+1365+327.052+1365+305C1365+282.948+1347.05+265+1325+265ZM1313.89+273.594L1325+281.667L1336.11+273.594C1342.25+275.759+1347.55+279.656+1351.44+284.72L1347.19+297.793L1358.29+305.853C1358.12+312.54+1356.02+318.731+1352.49+323.874L1338.71+323.874L1334.47+336.953C1331.46+337.837+1328.29+338.333+1325+338.333C1321.71+338.333+1318.54+337.837+1315.53+336.953L1311.28+323.88L1297.52+323.88C1293.98+318.736+1291.88+312.544+1291.71+305.853L1302.81+297.786L1298.56+284.72C1302.45+279.656+1307.75+275.759+1313.89+273.594ZM1325+288.333L1309.23+299.792L1315.25+318.333L1334.75+318.333L1340.77+299.792L1325+288.333Z" opacity="1" fill="#ffffff"/>
<path d="M905+265C882.948+265+865+282.948+865+305C865+327.052+882.948+345+905+345C927.052+345+945+327.052+945+305C945+282.948+927.052+265+905+265ZM893.893+273.594L905+281.667L916.107+273.594C922.25+275.759+927.552+279.656+931.439+284.72L927.194+297.793L938.288+305.853C938.119+312.54+936.02+318.731+932.487+323.874L918.711+323.874L914.466+336.953C911.465+337.837+908.293+338.333+905+338.333C901.707+338.333+898.535+337.837+895.534+336.953L891.283+323.88L877.52+323.88C873.984+318.736+871.881+312.544+871.712+305.853L882.812+297.786L878.561+284.72C882.448+279.656+887.75+275.759+893.893+273.594ZM905+288.333L889.225+299.792L895.254+318.333L914.746+318.333L920.775+299.792L905+288.333Z" opacity="1" fill="#ffffff"/>
<g opacity="1">
<path d="M1012.02+322.294C1014.31+322.018+1015.98+321.521+1017.02+320.803C1018.85+319.533+1019.76+317.337+1019.76+314.217C1019.76+311.842+1018.9+309.964+1017.19+308.583C1016.18+307.782+1014.46+306.954+1012.02+306.098L1012.02+322.294ZM1007.89+279.007C1005.37+279.062+1003.5+279.704+1002.28+280.933C1001.07+282.162+1000.46+283.839+1000.46+285.966C1000.46+288.286+1001.37+290.122+1003.2+291.475C1004.21+292.221+1005.78+292.911+1007.89+293.546L1007.89+279.007ZM1012.11+339.858L1007.89+339.858L1007.89+331.615C1002.18+331.007+997.924+329.82+995.113+328.052C990.158+324.876+987.723+319.464+987.81+311.814L999.546+311.814C999.952+315.294+1000.52+317.627+1001.24+318.815C1002.37+320.665+1004.59+321.866+1007.89+322.419L1007.89+304.731L1004.37+303.737C998.836+302.19+994.932+300.036+992.657+297.275C990.382+294.513+989.245+291.185+989.245+287.291C989.245+284.723+989.687+282.39+990.57+280.291C991.454+278.192+992.693+276.383+994.287+274.864C996.344+272.904+998.634+271.55+1001.15+270.805C1002.69+270.335+1004.94+269.99+1007.89+269.769L1007.89+264.26L1012.02+264.26L1012.02+269.852C1016.74+270.211+1020.45+271.316+1023.15+273.166C1028.05+276.121+1030.58+280.912+1030.76+287.54L1019.32+287.54C1019.09+285.082+1018.66+283.287+1018.02+282.155C1016.92+280.194+1014.92+279.117+1012.02+278.924L1012.02+294.706C1018.92+296.971+1023.55+298.973+1025.93+300.713C1029.84+303.612+1031.8+307.699+1031.8+312.974C1031.8+319.933+1029.12+324.987+1023.76+328.135C1020.48+330.068+1016.6+331.2+1012.11+331.532L1012.11+339.858Z" opacity="1" fill="#ff7500"/>
</g>
<g opacity="1">
<path d="M1222.02+322.294C1224.31+322.018+1225.98+321.521+1227.02+320.803C1228.85+319.533+1229.76+317.337+1229.76+314.217C1229.76+311.842+1228.9+309.964+1227.19+308.583C1226.18+307.782+1224.46+306.954+1222.02+306.098L1222.02+322.294ZM1217.89+279.007C1215.37+279.062+1213.5+279.704+1212.28+280.933C1211.07+282.162+1210.46+283.839+1210.46+285.966C1210.46+288.286+1211.37+290.122+1213.2+291.475C1214.21+292.221+1215.78+292.911+1217.89+293.546L1217.89+279.007ZM1222.11+339.858L1217.89+339.858L1217.89+331.615C1212.18+331.007+1207.92+329.82+1205.11+328.052C1200.16+324.876+1197.72+319.464+1197.81+311.814L1209.55+311.814C1209.95+315.294+1210.52+317.627+1211.24+318.815C1212.37+320.665+1214.59+321.866+1217.89+322.419L1217.89+304.731L1214.37+303.737C1208.84+302.19+1204.93+300.036+1202.66+297.275C1200.38+294.513+1199.24+291.185+1199.24+287.291C1199.24+284.723+1199.69+282.39+1200.57+280.291C1201.45+278.192+1202.69+276.383+1204.29+274.864C1206.34+272.904+1208.63+271.55+1211.15+270.805C1212.69+270.335+1214.94+269.99+1217.89+269.769L1217.89+264.26L1222.02+264.26L1222.02+269.852C1226.74+270.211+1230.45+271.316+1233.15+273.166C1238.05+276.121+1240.58+280.912+1240.76+287.54L1229.32+287.54C1229.09+285.082+1228.66+283.287+1228.02+282.155C1226.92+280.194+1224.92+279.117+1222.02+278.924L1222.02+294.706C1228.92+296.971+1233.55+298.973+1235.93+300.713C1239.84+303.612+1241.8+307.699+1241.8+312.974C1241.8+319.933+1239.12+324.987+1233.76+328.135C1230.48+330.068+1226.6+331.2+1222.11+331.532L1222.11+339.858Z" opacity="1" fill="#ff7500"/>
</g>
<g opacity="1">
<path d="M1432.02+322.294C1434.31+322.018+1435.98+321.521+1437.02+320.803C1438.85+319.533+1439.76+317.337+1439.76+314.217C1439.76+311.842+1438.9+309.964+1437.19+308.583C1436.18+307.782+1434.46+306.954+1432.02+306.098L1432.02+322.294ZM1427.89+279.007C1425.37+279.062+1423.5+279.704+1422.28+280.933C1421.07+282.162+1420.46+283.839+1420.46+285.966C1420.46+288.286+1421.37+290.122+1423.2+291.475C1424.21+292.221+1425.78+292.911+1427.89+293.546L1427.89+279.007ZM1432.11+339.858L1427.89+339.858L1427.89+331.615C1422.18+331.007+1417.92+329.82+1415.11+328.052C1410.16+324.876+1407.72+319.464+1407.81+311.814L1419.55+311.814C1419.95+315.294+1420.52+317.627+1421.24+318.815C1422.37+320.665+1424.59+321.866+1427.89+322.419L1427.89+304.731L1424.37+303.737C1418.84+302.19+1414.93+300.036+1412.66+297.275C1410.38+294.513+1409.24+291.185+1409.24+287.291C1409.24+284.723+1409.69+282.39+1410.57+280.291C1411.45+278.192+1412.69+276.383+1414.29+274.864C1416.34+272.904+1418.63+271.55+1421.15+270.805C1422.69+270.335+1424.94+269.99+1427.89+269.769L1427.89+264.26L1432.02+264.26L1432.02+269.852C1436.74+270.211+1440.45+271.316+1443.15+273.166C1448.05+276.121+1450.58+280.912+1450.76+287.54L1439.32+287.54C1439.09+285.082+1438.66+283.287+1438.02+282.155C1436.92+280.194+1434.92+279.117+1432.02+278.924L1432.02+294.706C1438.92+296.971+1443.55+298.973+1445.93+300.713C1449.84+303.612+1451.8+307.699+1451.8+312.974C1451.8+319.933+1449.12+324.987+1443.76+328.135C1440.48+330.068+1436.6+331.2+1432.11+331.532L1432.11+339.858Z" opacity="1" fill="#ff7500"/>
</g>
</g>
</svg>
